<svg width="190" height="34" viewBox="0 0 190 34" fill="none" xmlns="http://www.w3.org/2000/svg">
<g id="_&#195;&#144;&#194;&#161;&#195;&#144;&#194;&#187;&#195;&#144;&#194;&#190;&#195;&#144;&#194;&#185;_1" clip-path="url(#clip0_121_334)">
<g id="Group">
<path id="Vector" d="M17.6648 10.6504C11.626 10.6504 6.71128 15.5843 6.71128 21.6468C6.71128 27.7092 11.626 32.6431 17.6648 32.6431C23.7036 32.6431 28.6183 27.7092 28.6183 21.6468C28.6183 15.5843 23.7036 10.6504 17.6648 10.6504ZM17.6648 9.29016C24.463 9.29016 29.9732 14.8219 29.9732 21.6468C29.9732 28.4716 24.463 34.0034 17.6648 34.0034C10.8665 34.0034 5.35631 28.4716 5.35631 21.6468C5.35631 14.8219 10.8665 9.29016 17.6648 9.29016Z" fill="#FFD3F7"/>
<path id="Vector_2" d="M4.88458 3.74488C2.71328 3.74488 0.95015 5.51827 0.95015 7.6947C0.95015 9.87113 2.71663 11.6445 4.88458 11.6445C7.05253 11.6445 8.819 9.87113 8.819 7.6947C8.819 5.51827 7.05253 3.74488 4.88458 3.74488ZM4.88458 2.79102C7.58113 2.79102 9.76915 4.9876 9.76915 7.6947C9.76915 10.4018 7.58113 12.5984 4.88458 12.5984C2.18802 12.5984 0 10.4018 0 7.6947C0 4.9876 2.18802 2.79102 4.88458 2.79102Z" fill="#FFD3F7"/>
<path id="Vector_3" d="M17.6648 14.4726C13.7237 14.4726 10.5186 17.6902 10.5186 21.6468C10.5186 25.6033 13.7237 28.8209 17.6648 28.8209C21.6059 28.8209 24.811 25.6033 24.811 21.6468C24.811 17.6902 21.6059 14.4726 17.6648 14.4726ZM17.6648 13.2937C22.2583 13.2937 25.9853 17.0319 25.9853 21.6468C25.9853 26.2616 22.2616 29.9998 17.6648 29.9998C13.0679 29.9998 9.34427 26.2616 9.34427 21.6468C9.34427 17.0319 13.0679 13.2937 17.6648 13.2937Z" fill="#FFD3F7"/>
<path id="Vector_4" d="M8.41551 10.6706L7.74365 11.3451L12.2882 15.9074L12.96 15.2329L8.41551 10.6706Z" fill="#FFD3F7"/>
<path id="Vector_5" d="M12.0743 8.17169C12.3352 8.17169 12.5493 7.96009 12.5493 7.69475C12.5493 3.45273 9.11007 0 4.88458 0C4.62362 0 4.4095 0.211597 4.4095 0.476934C4.4095 0.74227 4.62027 0.953867 4.88458 0.953867C8.58816 0.953867 11.5992 3.97669 11.5992 7.69475C11.5992 7.95673 11.81 8.17169 12.0743 8.17169Z" fill="#FFD3F7"/>
<path id="Vector_6" d="M4.88457 6.94582C4.47307 6.94582 4.13851 7.28169 4.13851 7.6948C4.13851 8.10792 4.47307 8.44379 4.88457 8.44379C5.29608 8.44379 5.63064 8.10792 5.63064 7.6948C5.63064 7.28169 5.29608 6.94582 4.88457 6.94582ZM4.88457 6.21362C5.69756 6.21362 6.35998 6.87528 6.35998 7.6948C6.35998 8.51432 5.7009 9.17599 4.88457 9.17599C4.06825 9.17599 3.40916 8.51432 3.40916 7.6948C3.40916 6.87528 4.06825 6.21362 4.88457 6.21362Z" fill="#FFD3F7"/>
<g id="Group_2">
<path id="Vector_7" d="M31.6628 21.3176L25.7009 21.2908L25.6909 22.2446L31.6527 22.2682L31.6628 21.3176Z" fill="#FFD3F7"/>
<path id="Vector_8" d="M32.2148 22.4898C32.5895 22.8761 33.2051 22.8828 33.5898 22.5066C33.9746 22.1305 33.9813 21.5125 33.6066 21.1262C33.2319 20.74 32.6163 20.7332 32.2315 21.1094C31.8468 21.4856 31.8401 22.1036 32.2148 22.4898ZM31.5356 23.1549C30.7929 22.3924 30.8063 21.1732 31.5657 20.4276C32.3252 19.682 33.5397 19.6954 34.2824 20.4578C35.0251 21.2202 35.0117 22.4395 34.2523 23.1851C33.4928 23.9307 32.2784 23.9173 31.5356 23.1549Z" fill="#FFD3F7"/>
</g>
<path id="Vector_9" d="M19.1569 22.1237C18.2636 22.1237 17.5343 22.8559 17.5343 23.7527C17.5343 24.6494 18.2636 25.3816 19.1569 25.3816C20.0502 25.3816 20.7795 24.6494 20.7795 23.7527C20.7795 22.8559 20.0502 22.1237 19.1569 22.1237ZM19.1569 21.2404C20.5386 21.2404 21.6594 22.3655 21.6594 23.7527C21.6594 25.1398 20.5386 26.265 19.1569 26.265C17.7752 26.265 16.6544 25.1398 16.6544 23.7527C16.6544 22.3655 17.7752 21.2404 19.1569 21.2404Z" fill="#FFD3F7"/>
</g>
<g id="Group_3">
<g id="Group_4">
<path id="Vector_10" d="M54.7976 16.6926C53.3055 15.8395 51.7096 15.3324 50.01 15.1711V28.794H47.8354V15.1711C46.1225 15.3324 44.5199 15.8395 43.0278 16.6926L42.2583 14.9495C44.2188 13.7739 46.4303 13.1862 48.8893 13.1862C51.3483 13.1862 53.6032 13.7739 55.5637 14.9495L54.7943 16.6926H54.7976Z" fill="white"/>
<path id="Vector_11" d="M61.5156 27.0744C62.9073 27.0744 64.0248 26.6041 64.8746 25.6637L66.0154 27.0307C65.5035 27.6487 64.8511 28.1189 64.0616 28.4413C63.2854 28.7638 62.4155 28.925 61.4487 28.925C60.2175 28.925 59.1268 28.6764 58.1767 28.176C57.2265 27.6621 56.4871 26.9501 55.9585 26.0365C55.4466 25.1263 55.189 24.0952 55.189 22.9499C55.189 21.8046 55.4366 20.797 55.9351 19.8868C56.447 18.9766 57.1429 18.2712 58.0228 17.7708C58.916 17.2569 59.9197 16.9983 61.0305 16.9983C62.0843 16.9983 63.0445 17.2401 63.9077 17.7271C64.7708 18.1973 65.46 18.8657 65.9719 19.7323C66.4838 20.5988 66.7481 21.5997 66.7615 22.7316L57.5176 24.5385C57.812 25.348 58.3005 25.9727 58.9896 26.4127C59.6922 26.8527 60.5353 27.0744 61.5156 27.0744ZM61.0338 18.7851C60.3011 18.7851 59.642 18.953 59.0566 19.2923C58.4845 19.6315 58.0395 20.1084 57.7183 20.7264C57.3971 21.3276 57.2365 22.033 57.2365 22.8424V23.0641L64.6805 21.6534C64.4898 20.8003 64.0649 20.1118 63.4058 19.5811C62.7468 19.0504 61.9572 18.7885 61.0338 18.7885V18.7851Z" fill="white"/>
<path id="Vector_12" d="M71.733 19.0739C72.0977 18.3988 72.6397 17.8849 73.359 17.5323C74.0783 17.1796 74.9482 17.0016 75.9719 17.0016V19.0504C75.8548 19.037 75.6942 19.0269 75.4901 19.0269C74.3493 19.0269 73.4493 19.3728 72.7902 20.0614C72.1445 20.7364 71.8234 21.7071 71.8234 22.97V28.7906H69.7156V17.1091H71.7364V19.0705L71.733 19.0739Z" fill="white"/>
<path id="Vector_13" d="M80.5888 19.0739C80.9535 18.3988 81.4955 17.8849 82.2148 17.5323C82.9341 17.1796 83.804 17.0016 84.8277 17.0016V19.0504C84.7106 19.037 84.55 19.0269 84.3459 19.0269C83.2051 19.0269 82.3051 19.3728 81.646 20.0614C81.0003 20.7364 80.6792 21.7071 80.6792 22.97V28.7906H78.5714V17.1091H80.5922V19.0705L80.5888 19.0739Z" fill="white"/>
<path id="Vector_14" d="M98.3004 17.1091V28.7939H96.2797V26.9433C95.8113 27.5915 95.2191 28.0819 94.4998 28.4211C93.7839 28.7604 92.991 28.9283 92.1278 28.9283C91.0003 28.9283 89.99 28.6797 89.0967 28.1793C88.2034 27.6789 87.5008 26.9803 86.989 26.0835C86.4905 25.1733 86.2429 24.1287 86.2429 22.9532C86.2429 21.7776 86.4905 20.7398 86.989 19.8464C87.5008 18.9496 88.2034 18.251 89.0967 17.7506C89.99 17.2501 91.0003 17.0016 92.1278 17.0016C92.9609 17.0016 93.7304 17.1628 94.4329 17.4852C95.1355 17.7942 95.721 18.2577 96.1894 18.8757V17.1124H98.2971L98.3004 17.1091ZM92.3051 27.0743C93.0378 27.0743 93.7036 26.9064 94.3024 26.5671C94.9013 26.2145 95.3697 25.7308 95.7076 25.1128C96.0455 24.4814 96.2128 23.7593 96.2128 22.9532C96.2128 22.1471 96.0455 21.4317 95.7076 20.8137C95.3697 20.1823 94.9013 19.6953 94.3024 19.3594C93.7036 19.0202 93.0345 18.8522 92.3051 18.8522C91.5758 18.8522 90.8866 19.0202 90.2844 19.3594C89.6989 19.6986 89.2305 20.1823 88.8792 20.8137C88.5413 21.4317 88.374 22.1437 88.374 22.9532C88.374 23.7626 88.5413 24.4814 88.8792 25.1128C89.2305 25.7308 89.6989 26.2145 90.2844 26.5671C90.8832 26.9064 91.5591 27.0743 92.3051 27.0743Z" fill="white"/>
</g>
<g id="Group_5">
<path id="Vector_15" d="M113.259 28.9283C112.074 28.9283 111.01 28.6697 110.074 28.1558C109.15 27.6419 108.428 26.9366 107.899 26.0398C107.37 25.1296 107.109 24.0985 107.109 22.9532C107.109 21.8079 107.374 20.7868 107.899 19.8901C108.428 18.9799 109.15 18.2745 110.074 17.7741C111.01 17.2602 112.071 17.0016 113.259 17.0016C114.312 17.0016 115.249 17.2132 116.069 17.6397C116.902 18.0663 117.548 18.6843 118.003 19.4904L116.4 20.5249C116.035 19.9673 115.58 19.5475 115.038 19.2687C114.496 18.9899 113.898 18.8489 113.239 18.8489C112.476 18.8489 111.79 19.0168 111.174 19.356C110.575 19.6953 110.097 20.1789 109.746 20.8103C109.408 21.4283 109.241 22.1404 109.241 22.9498C109.241 23.7593 109.408 24.5015 109.746 25.133C110.097 25.751 110.572 26.2279 111.174 26.5671C111.79 26.9064 112.476 27.0743 113.239 27.0743C113.898 27.0743 114.496 26.9332 115.038 26.6545C115.58 26.3757 116.035 25.9559 116.4 25.3983L118.003 26.4126C117.548 27.2221 116.905 27.8468 116.069 28.2868C115.249 28.7133 114.312 28.9249 113.259 28.9249V28.9283Z" fill="white"/>
<path id="Vector_16" d="M125.544 28.9283C124.386 28.9283 123.349 28.6697 122.426 28.1558C121.502 27.6419 120.78 26.9366 120.251 26.0398C119.739 25.1296 119.481 24.0985 119.481 22.9532C119.481 21.8079 119.739 20.7868 120.251 19.8901C120.78 18.9799 121.502 18.2745 122.426 17.7741C123.349 17.2602 124.386 17.0016 125.544 17.0016C126.701 17.0016 127.732 17.2602 128.638 17.7741C129.562 18.2745 130.278 18.9799 130.79 19.8901C131.318 20.7868 131.579 21.8079 131.579 22.9532C131.579 24.0985 131.315 25.1296 130.79 26.0398C130.278 26.9366 129.558 27.6419 128.638 28.1558C127.732 28.6697 126.698 28.9283 125.544 28.9283ZM125.544 27.0777C126.29 27.0777 126.956 26.9097 127.541 26.5705C128.14 26.2178 128.608 25.7342 128.946 25.1162C129.284 24.4847 129.451 23.7626 129.451 22.9565C129.451 22.1505 129.284 21.4351 128.946 20.8171C128.608 20.1856 128.14 19.6986 127.541 19.3627C126.956 19.0235 126.29 18.8556 125.544 18.8556C124.798 18.8556 124.125 19.0235 123.523 19.3627C122.937 19.702 122.469 20.1856 122.118 20.8171C121.78 21.4351 121.613 22.1471 121.613 22.9565C121.613 23.766 121.78 24.4847 122.118 25.1162C122.469 25.7342 122.937 26.2178 123.523 26.5705C124.122 26.9097 124.798 27.0777 125.544 27.0777Z" fill="white"/>
<path id="Vector_17" d="M145.634 17.1091V27.2053C145.634 29.2474 145.129 30.7554 144.118 31.7261C143.108 32.7102 141.599 33.2039 139.595 33.2039C138.498 33.2039 137.451 33.0494 136.454 32.7404C135.457 32.4448 134.654 32.0216 134.038 31.4607L135.049 29.8284C135.591 30.2986 136.256 30.6647 137.046 30.9301C137.852 31.2088 138.678 31.3499 139.528 31.3499C140.89 31.3499 141.894 31.0275 142.536 30.3792C143.195 29.731 143.523 28.7469 143.523 27.4236V26.4966C143.024 27.0978 142.409 27.5546 141.68 27.8636C140.964 28.1592 140.177 28.3036 139.331 28.3036C138.217 28.3036 137.206 28.0685 136.3 27.5983C135.406 27.1146 134.704 26.4429 134.192 25.5931C133.68 24.7266 133.423 23.7425 133.423 22.6375C133.423 21.5325 133.68 20.5584 134.192 19.7053C134.704 18.8388 135.406 18.1704 136.3 17.7002C137.206 17.23 138.217 16.9949 139.331 16.9949C140.211 16.9949 141.02 17.1561 141.77 17.4785C142.533 17.801 143.155 18.2779 143.637 18.9127V17.1057H145.634V17.1091ZM139.572 26.4563C140.335 26.4563 141.014 26.2951 141.613 25.9726C142.228 25.6502 142.703 25.2001 143.041 24.6292C143.392 24.0414 143.57 23.3797 143.57 22.6442C143.57 21.5123 143.195 20.6021 142.449 19.9102C141.703 19.2049 140.743 18.8522 139.572 18.8522C138.401 18.8522 137.421 19.2049 136.674 19.9102C135.928 20.6021 135.554 21.5123 135.554 22.6442C135.554 23.3797 135.721 24.0414 136.059 24.6292C136.41 25.2035 136.885 25.6502 137.487 25.9726C138.103 26.2951 138.799 26.4563 139.575 26.4563H139.572Z" fill="white"/>
<path id="Vector_18" d="M155.875 17.0016C157.354 17.0016 158.525 17.4349 159.388 18.3015C160.268 19.1546 160.706 20.4107 160.706 22.0699V28.794H158.598V22.3117C158.598 21.1799 158.327 20.3268 157.785 19.7558C157.243 19.1814 156.467 18.8959 155.457 18.8959C154.316 18.8959 153.416 19.2352 152.757 19.9103C152.098 20.5719 151.77 21.5258 151.77 22.7752V28.794H149.662V17.1091H151.683V18.8724C152.108 18.2712 152.68 17.8077 153.396 17.4819C154.128 17.1595 154.955 16.9983 155.878 16.9983L155.875 17.0016Z" fill="white"/>
<path id="Vector_19" d="M164.607 17.1091H166.715V28.794H164.607V17.1091ZM165.661 14.8588C165.249 14.8588 164.908 14.7278 164.627 14.4625C164.363 14.1971 164.232 13.8747 164.232 13.4918C164.232 13.1089 164.363 12.7865 164.627 12.5212C164.905 12.2424 165.249 12.1013 165.661 12.1013C166.072 12.1013 166.407 12.2323 166.671 12.4976C166.949 12.7462 167.089 13.0619 167.089 13.4448C167.089 13.8277 166.949 14.1803 166.671 14.4591C166.407 14.7245 166.072 14.8554 165.661 14.8554V14.8588Z" fill="white"/>
<path id="Vector_20" d="M176.869 28.1122C176.561 28.3775 176.179 28.5824 175.728 28.7302C175.273 28.8612 174.804 28.9283 174.323 28.9283C173.152 28.9283 172.245 28.6126 171.599 27.9812C170.953 27.3498 170.632 26.4463 170.632 25.2707V14.5565H172.74V17.1125H176.079V18.8556H172.74V25.1834C172.74 25.8148 172.894 26.3018 173.202 26.6377C173.523 26.9769 173.978 27.1449 174.563 27.1449C175.209 27.1449 175.758 26.9602 176.209 26.5941L176.869 28.1155V28.1122Z" fill="white"/>
<path id="Vector_21" d="M190 17.1091V28.7939H187.979V26.9433C187.511 27.5915 186.919 28.0819 186.199 28.4211C185.483 28.7604 184.691 28.9283 183.827 28.9283C182.7 28.9283 181.69 28.6797 180.796 28.1793C179.903 27.6789 179.2 26.9803 178.689 26.0835C178.19 25.1733 177.942 24.1287 177.942 22.9532C177.942 21.7776 178.19 20.7398 178.689 19.8464C179.2 18.9496 179.903 18.251 180.796 17.7506C181.69 17.2501 182.7 17.0016 183.827 17.0016C184.66 17.0016 185.43 17.1628 186.132 17.4852C186.835 17.7942 187.421 18.2577 187.889 18.8757V17.1124H189.997L190 17.1091ZM184.005 27.0743C184.737 27.0743 185.403 26.9064 186.002 26.5671C186.601 26.2145 187.069 25.7308 187.407 25.1128C187.745 24.4814 187.912 23.7593 187.912 22.9532C187.912 22.1471 187.745 21.4317 187.407 20.8137C187.069 20.1823 186.601 19.6953 186.002 19.3594C185.403 19.0202 184.734 18.8522 184.005 18.8522C183.275 18.8522 182.586 19.0202 181.984 19.3594C181.398 19.6986 180.93 20.1823 180.579 20.8137C180.241 21.4317 180.074 22.1437 180.074 22.9532C180.074 23.7626 180.241 24.4814 180.579 25.1128C180.93 25.7308 181.398 26.2145 181.984 26.5671C182.583 26.9064 183.259 27.0743 184.005 27.0743Z" fill="white"/>
</g>
</g>
</g>
<defs>
<clipPath id="clip0_121_334">
<rect width="190" height="34" fill="white"/>
</clipPath>
</defs>
</svg>
