<svg width="108" height="108" viewBox="0 0 108 108" fill="none" xmlns="http://www.w3.org/2000/svg">
<g id="Subtract" filter="url(#filter0_d_104_297)">
<path fill-rule="evenodd" clip-rule="evenodd" d="M48 92C72.3005 92 92 72.3005 92 48C92 23.6995 72.3005 4 48 4C23.6995 4 4 23.6995 4 48C4 72.3005 23.6995 92 48 92ZM44.3333 25.0833C44.3333 23.0582 45.9749 21.4166 48 21.4166C50.025 21.4166 51.6666 23.0582 51.6666 25.0833V44.3333H70.9166C72.9417 44.3333 74.5833 45.9749 74.5833 48C74.5833 50.025 72.9417 51.6666 70.9166 51.6666H51.6666V70.9166C51.6666 72.9417 50.025 74.5833 48 74.5833C45.9749 74.5833 44.3333 72.9417 44.3333 70.9166V51.6666H25.0833C23.0582 51.6666 21.4166 50.025 21.4166 48C21.4166 45.9749 23.0582 44.3333 25.0833 44.3333H44.3333V25.0833Z" fill="#468896"/>
</g>
<defs>
<filter id="filter0_d_104_297" x="0" y="0" width="108" height="108" filterUnits="userSpaceOnUse" color-interpolation-filters="sRGB">
<feFlood flood-opacity="0" result="BackgroundImageFix"/>
<feColorMatrix in="SourceAlpha" type="matrix" values="0 0 0 0 0 0 0 0 0 0 0 0 0 0 0 0 0 0 127 0" result="hardAlpha"/>
<feMorphology radius="3" operator="erode" in="SourceAlpha" result="effect1_dropShadow_104_297"/>
<feOffset dx="6" dy="6"/>
<feGaussianBlur stdDeviation="6.5"/>
<feComposite in2="hardAlpha" operator="out"/>
<feColorMatrix type="matrix" values="0 0 0 0 0.363517 0 0 0 0 0.325833 0 0 0 0 0.425 0 0 0 0.2 0"/>
<feBlend mode="normal" in2="BackgroundImageFix" result="effect1_dropShadow_104_297"/>
<feBlend mode="normal" in="SourceGraphic" in2="effect1_dropShadow_104_297" result="shape"/>
</filter>
</defs>
</svg>
